<svg width="18" height="15" viewBox="0 0 18 15" fill="none" xmlns="http://www.w3.org/2000/svg">
<path d="M17.01 9.86813C15.78 9.86813 14.59 9.7087 13.48 9.42175C13.13 9.3261 12.74 9.39784 12.47 9.61305L10.9 11.1833C8.07 10.1073 5.42 8.07465 4.01 5.73914L5.96 4.41595C6.23 4.19276 6.31 3.88189 6.2 3.6029C5.83 2.71812 5.64 1.76957 5.64 0.789131C5.64 0.358696 5.19 0 4.65 0H1.19C0.65 0 0 0.191305 0 0.789131C0 8.19421 7.73 14.3478 17.01 14.3478C17.72 14.3478 18 13.8457 18 13.4073V10.6573C18 10.2268 17.55 9.86813 17.01 9.86813Z" fill="#404040"/>
</svg>
