<svg width="22" height="25" viewBox="0 0 22 25" fill="none" xmlns="http://www.w3.org/2000/svg">
<g clip-path="url(#clip0)">
<path d="M11.0049 6.88478C7.88172 6.88478 5.36252 9.38967 5.36252 12.4951C5.36252 15.6006 7.88172 18.1055 11.0049 18.1055C14.1281 18.1055 16.6473 15.6006 16.6473 12.4951C16.6473 9.38967 14.1281 6.88478 11.0049 6.88478ZM11.0049 16.1426C8.98663 16.1426 7.33663 14.5069 7.33663 12.4951C7.33663 10.4834 8.98172 8.84767 11.0049 8.84767C13.0281 8.84767 14.6732 10.4834 14.6732 12.4951C14.6732 14.5069 13.0232 16.1426 11.0049 16.1426ZM18.1942 6.65529C18.1942 7.38283 17.6049 7.96389 16.8781 7.96389C16.1464 7.96389 15.5621 7.37795 15.5621 6.65529C15.5621 5.93263 16.1514 5.3467 16.8781 5.3467C17.6049 5.3467 18.1942 5.93263 18.1942 6.65529ZM21.9313 7.98342C21.8478 6.23049 21.4451 4.67775 20.1536 3.39845C18.867 2.11916 17.3054 1.71877 15.5424 1.63087C13.7255 1.52834 8.27948 1.52834 6.46252 1.63087C4.70448 1.71388 3.14288 2.11427 1.85136 3.39357C0.559842 4.67287 0.162074 6.2256 0.0736816 7.97853C-0.0294434 9.78517 -0.0294434 15.2002 0.0736816 17.0069C0.157164 18.7598 0.559842 20.3125 1.85136 21.5918C3.14288 22.8711 4.69957 23.2715 6.46252 23.3594C8.27948 23.4619 13.7255 23.4619 15.5424 23.3594C17.3054 23.2764 18.867 22.876 20.1536 21.5918C21.4402 20.3125 21.8429 18.7598 21.9313 17.0069C22.0344 15.2002 22.0344 9.79006 21.9313 7.98342ZM19.5839 18.9453C19.2009 19.9024 18.4594 20.6397 17.492 21.0254C16.0433 21.5967 12.6058 21.4649 11.0049 21.4649C9.40404 21.4649 5.96163 21.5918 4.51788 21.0254C3.55538 20.6446 2.81386 19.9072 2.42591 18.9453C1.85136 17.5049 1.98395 14.0869 1.98395 12.4951C1.98395 10.9033 1.85627 7.48049 2.42591 6.04494C2.80895 5.08791 3.55047 4.3506 4.51788 3.96486C5.96654 3.39357 9.40404 3.52541 11.0049 3.52541C12.6058 3.52541 16.0482 3.39845 17.492 3.96486C18.4545 4.34572 19.196 5.08302 19.5839 6.04494C20.1585 7.48537 20.0259 10.9033 20.0259 12.4951C20.0259 14.0869 20.1585 17.5098 19.5839 18.9453Z" fill="#404040"/>
</g>
<defs>
<clipPath id="clip0">
<rect width="22" height="25" fill="white"/>
</clipPath>
</defs>
</svg>
